<svg class="ybar-icon-sprite _yb_l0pm4" fill="none" xmlns="http://www.w3.org/2000/svg" viewBox="0 0 24 24"><path class="_yb_1x38q _yb_home_icon" d="M12.757 1.3a1.034 1.034 0 0 0-.741-.3 1.033 1.033 0 0 0-.74.3l-9.973 9.938a1.027 1.027 0 0 0 0 1.457 1.038 1.038 0 0 0 1.463 0l.231-.226V22c0 .551.446.998.998.998h5.034v-3.993a3 3 0 0 1 3-3 3.002 3.002 0 0 1 3.007 3v3.993h4.998c.552 0 1.004-.452 1.004-1.004v-9.525l.228.226a1.04 1.04 0 0 0 1.464 0 1.03 1.03 0 0 0 0-1.457L12.757 1.3z" fill="#FFFFFF"></path></svg>